<svg width="1600" height="1040" viewBox="0 0 1600 1040" fill="none" xmlns="http://www.w3.org/2000/svg">
  <defs>
    <linearGradient id="bg" x1="180" y1="40" x2="1440" y2="1000" gradientUnits="userSpaceOnUse">
      <stop stop-color="#FFFFFF"/>
      <stop offset="1" stop-color="#EAF2FF"/>
    </linearGradient>
    <linearGradient id="panelGlow" x1="320" y1="120" x2="1330" y2="930" gradientUnits="userSpaceOnUse">
      <stop stop-color="#FDFEFF"/>
      <stop offset="1" stop-color="#F1F5F9"/>
    </linearGradient>
    <linearGradient id="headerBar" x1="428" y1="180" x2="1388" y2="180" gradientUnits="userSpaceOnUse">
      <stop stop-color="#F8FAFC"/>
      <stop offset="1" stop-color="#EEF4FF"/>
    </linearGradient>
    <filter id="shadow" x="134" y="72" width="1332" height="910" filterUnits="userSpaceOnUse" color-interpolation-filters="sRGB">
      <feDropShadow dx="0" dy="22" stdDeviation="28" flood-color="#0F172A" flood-opacity="0.12"/>
    </filter>
    <style>
      .title { font: 700 28px 'Helvetica Neue', Arial, sans-serif; fill: #0F172A; }
      .subtitle { font: 500 14px 'Helvetica Neue', Arial, sans-serif; fill: #475569; }
      .section { font: 700 16px 'Helvetica Neue', Arial, sans-serif; fill: #0969DA; }
      .label { font: 700 13px 'Helvetica Neue', Arial, sans-serif; fill: #334155; }
      .small { font: 500 12px 'Helvetica Neue', Arial, sans-serif; fill: #64748B; }
      .body { font: 600 13px 'Helvetica Neue', Arial, sans-serif; fill: #1E293B; }
      .tiny { font: 500 11px 'Helvetica Neue', Arial, sans-serif; fill: #64748B; }
      .metric { font: 700 20px 'Helvetica Neue', Arial, sans-serif; fill: #0F172A; }
      .big { font: 700 30px 'Helvetica Neue', Arial, sans-serif; fill: #9A6700; }
      .blue { fill: #0969DA; }
      .green { fill: #1A7F37; }
      .red { fill: #CF222E; }
    </style>
  </defs>

  <rect width="1600" height="1040" fill="#F4F8FC"/>
  <circle cx="1370" cy="170" r="190" fill="#D9E8FF" fill-opacity="0.45"/>
  <circle cx="250" cy="940" r="220" fill="#E5EEF8" fill-opacity="0.9"/>
  <circle cx="1500" cy="920" r="130" fill="#DCEEFF" fill-opacity="0.7"/>

  <g filter="url(#shadow)">
    <rect x="170" y="110" width="1260" height="850" rx="28" fill="url(#bg)" stroke="#D7DEE8"/>
  </g>

  <rect x="170" y="110" width="1260" height="56" rx="28" fill="#F8FAFC"/>
  <path d="M170 138C170 122.536 182.536 110 198 110H1402C1417.46 110 1430 122.536 1430 138V166H170V138Z" fill="#F8FAFC"/>
  <circle cx="210" cy="138" r="7" fill="#FF5F57"/>
  <circle cx="234" cy="138" r="7" fill="#FEBB2E"/>
  <circle cx="258" cy="138" r="7" fill="#28C840"/>
  <text x="800" y="144" text-anchor="middle" class="body">BCI Streaming Demo - Motor Imagery</text>

  <text x="220" y="210" class="title">NeuroStream</text>
  <text x="220" y="238" class="subtitle">README hero preview based on the current Tkinter desktop layout</text>

  <rect x="212" y="268" width="1176" height="630" rx="22" fill="url(#panelGlow)" stroke="#D7DEE8"/>
  <rect x="230" y="286" width="344" height="594" rx="18" fill="#F6F8FA" stroke="#D0D7DE"/>
  <rect x="592" y="286" width="778" height="594" rx="18" fill="#F6F8FA" stroke="#D0D7DE"/>

  <text x="258" y="316" class="section">Parameters</text>
  <text x="622" y="316" class="section">Live Feed</text>

  <text x="258" y="352" class="label">Data Folder</text>
  <rect x="258" y="364" width="222" height="38" rx="10" fill="#FFFFFF" stroke="#D0D7DE"/>
  <text x="274" y="387" class="small">/Volumes/BCI/MNE-zhou-2016</text>
  <rect x="490" y="364" width="58" height="38" rx="10" fill="#24292F"/>
  <text x="519" y="387" text-anchor="middle" fill="#FFFFFF" class="body">Browse</text>
  <text x="258" y="424" class="green body">Local data found.</text>

  <rect x="258" y="448" width="290" height="42" rx="12" fill="#0969DA"/>
  <text x="282" y="474" fill="#FFFFFF" class="body">Train &amp; Load</text>
  <rect x="258" y="500" width="290" height="42" rx="12" fill="#EAEEF2"/>
  <text x="282" y="526" class="small">Start Stream</text>
  <rect x="258" y="552" width="290" height="42" rx="12" fill="#EAEEF2"/>
  <text x="282" y="578" class="small">Pause</text>
  <rect x="258" y="604" width="290" height="42" rx="12" fill="#EAEEF2"/>
  <text x="282" y="630" class="small">Stop</text>

  <rect x="258" y="674" width="290" height="74" rx="14" fill="#FFFFFF" stroke="#D0D7DE"/>
  <text x="276" y="698" class="label">Bandpass Filter</text>
  <text x="276" y="720" class="tiny">Low: 8.0 Hz</text>
  <rect x="344" y="710" width="174" height="8" rx="4" fill="#D0D7DE"/>
  <rect x="344" y="710" width="50" height="8" rx="4" fill="#0969DA"/>
  <circle cx="394" cy="714" r="8" fill="#0969DA"/>
  <text x="276" y="742" class="tiny">High: 30.0 Hz</text>
  <rect x="344" y="732" width="174" height="8" rx="4" fill="#D0D7DE"/>
  <rect x="344" y="732" width="126" height="8" rx="4" fill="#0969DA"/>
  <circle cx="470" cy="736" r="8" fill="#0969DA"/>

  <rect x="258" y="760" width="290" height="102" rx="14" fill="#FFFFFF" stroke="#D0D7DE"/>
  <text x="276" y="784" class="label">Training Setup</text>
  <text x="276" y="806" class="tiny">Train subjects: 1, 2</text>
  <text x="276" y="830" class="tiny">Test subject: 3</text>
  <text x="276" y="854" class="tiny">Classifier: LDA</text>

  <rect x="622" y="334" width="718" height="62" rx="14" fill="url(#headerBar)" stroke="#D0D7DE"/>
  <text x="650" y="358" class="small">Trial: 12 / 45</text>
  <text x="980" y="358" text-anchor="middle" class="big">EEG Window: 1.5 s</text>
  <rect x="650" y="370" width="662" height="12" rx="6" fill="#D0D7DE"/>
  <rect x="650" y="370" width="414" height="12" rx="6" fill="#9A6700"/>
  <text x="650" y="414" class="small">Status: Streaming Subject 3 trials</text>

  <rect x="622" y="422" width="718" height="116" rx="16" fill="#FFFFFF" stroke="#D0D7DE"/>
  <text x="650" y="460" class="metric blue">Prediction: LEFT</text>
  <text x="1040" y="460" class="metric green">Actual: LEFT</text>
  <text x="650" y="494" class="small">Classifier Confidence</text>
  <rect x="650" y="506" width="662" height="18" rx="9" fill="#D0D7DE"/>
  <rect x="650" y="506" width="430" height="18" rx="9" fill="#0969DA"/>
  <text x="734" y="519" fill="#FFFFFF" class="tiny">LEFT 65%</text>
  <text x="1214" y="519" class="tiny">RIGHT 35%</text>

  <rect x="622" y="552" width="718" height="140" rx="16" fill="#FFFFFF" stroke="#D0D7DE"/>
  <text x="650" y="582" class="metric">Online Accuracy: 83.3%</text>
  <text x="1070" y="582" class="small">Offline CV: 78.9% +/- 4.1%</text>
  <text x="650" y="614" class="small">Trial-by-Trial History</text>
  <rect x="650" y="626" width="662" height="48" rx="10" fill="#EAEEF2"/>
  <line x1="680" y1="636" x2="680" y2="666" stroke="#D0D7DE" stroke-dasharray="4 4"/>
  <line x1="808" y1="636" x2="808" y2="666" stroke="#D0D7DE" stroke-dasharray="4 4"/>
  <line x1="936" y1="636" x2="936" y2="666" stroke="#D0D7DE" stroke-dasharray="4 4"/>
  <line x1="1064" y1="636" x2="1064" y2="666" stroke="#D0D7DE" stroke-dasharray="4 4"/>
  <line x1="1192" y1="636" x2="1192" y2="666" stroke="#D0D7DE" stroke-dasharray="4 4"/>
  <rect x="694" y="642" width="16" height="24" rx="4" fill="#1A7F37"/>
  <rect x="730" y="642" width="16" height="24" rx="4" fill="#1A7F37"/>
  <rect x="766" y="642" width="16" height="24" rx="4" fill="#CF222E"/>
  <rect x="802" y="642" width="16" height="24" rx="4" fill="#1A7F37"/>
  <rect x="838" y="642" width="16" height="24" rx="4" fill="#1A7F37"/>
  <rect x="874" y="642" width="16" height="24" rx="4" fill="#1A7F37"/>
  <rect x="910" y="642" width="16" height="24" rx="4" fill="#CF222E"/>
  <rect x="946" y="642" width="16" height="24" rx="4" fill="#1A7F37"/>
  <rect x="982" y="642" width="16" height="24" rx="4" fill="#1A7F37"/>
  <rect x="1018" y="642" width="16" height="24" rx="4" fill="#1A7F37"/>
  <polyline points="702,650 738,646 774,658 810,644 846,641 882,638 918,646 954,639 990,635 1026,632"
    fill="none" stroke="#0969DA" stroke-width="3" stroke-linecap="round" stroke-linejoin="round"/>

  <rect x="622" y="706" width="350" height="144" rx="16" fill="#FFFFFF" stroke="#D0D7DE"/>
  <text x="650" y="736" class="small">Band Power (mu / beta)</text>
  <rect x="680" y="758" width="74" height="64" rx="10" fill="#D0D7DE"/>
  <rect x="680" y="781" width="74" height="41" rx="10" fill="#0969DA"/>
  <text x="717" y="838" text-anchor="middle" class="tiny">mu 64%</text>
  <rect x="804" y="758" width="74" height="64" rx="10" fill="#D0D7DE"/>
  <rect x="804" y="796" width="74" height="26" rx="10" fill="#1A7F37"/>
  <text x="841" y="838" text-anchor="middle" class="tiny">beta 41%</text>

  <rect x="990" y="706" width="350" height="144" rx="16" fill="#FFFFFF" stroke="#D0D7DE"/>
  <text x="1018" y="736" class="small">Confusion Matrix</text>
  <text x="1122" y="760" text-anchor="middle" class="tiny">Pred LEFT</text>
  <text x="1226" y="760" text-anchor="middle" class="tiny">Pred RIGHT</text>
  <text x="1024" y="804" text-anchor="middle" class="tiny">LEFT</text>
  <text x="1024" y="852" text-anchor="middle" class="tiny">RIGHT</text>
  <rect x="1060" y="780" width="92" height="40" rx="10" fill="#8ED7A2"/>
  <rect x="1164" y="780" width="92" height="40" rx="10" fill="#F8D3D5"/>
  <rect x="1060" y="828" width="92" height="40" rx="10" fill="#F5C1C5"/>
  <rect x="1164" y="828" width="92" height="40" rx="10" fill="#70C58C"/>
  <text x="1106" y="805" text-anchor="middle" class="body">9</text>
  <text x="1210" y="805" text-anchor="middle" class="body">2</text>
  <text x="1106" y="853" text-anchor="middle" class="body">1</text>
  <text x="1210" y="853" text-anchor="middle" class="body">8</text>

  <rect x="228" y="912" width="1176" height="28" rx="12" fill="#F0F3F6"/>
  <text x="252" y="931" class="small">Ready. Configure parameters and press [Train &amp; Load].</text>

  <text x="220" y="944" class="subtitle">Includes the current app concepts: local Zhou2016 data selection, train/load actions, pseudo-online trial streaming, confidence, band power, history, and confusion matrix.</text>
  <text x="220" y="972" class="subtitle">Use this asset directly in README or replace it later with a live screenshot after a final UI polish pass.</text>
</svg>
